<svg width="32" height="32" viewBox="0 0 32 32" fill="none" xmlns="http://www.w3.org/2000/svg">
<rect width="32" height="32" rx="6.25" fill="white"/>
<mask id="mask0_13_39" style="mask-type:alpha" maskUnits="userSpaceOnUse" x="3" y="16" width="26" height="8">
<path d="M3.31038 21.4819C3.19538 21.4819 3.11788 21.4419 3.07788 21.3619C3.03788 21.2819 3.01788 21.1744 3.01788 21.0394C3.01788 20.9394 3.02538 20.8269 3.04038 20.7019L3.51288 16.3219H5.11038C5.77538 16.3219 6.26288 16.4244 6.57288 16.6294C6.88788 16.8344 7.04538 17.1744 7.04538 17.6494C7.04538 17.9394 6.98038 18.2044 6.85038 18.4444C6.72538 18.6844 6.56038 18.8919 6.35538 19.0669C6.15038 19.2419 5.93038 19.3794 5.69538 19.4794C5.46538 19.5744 5.24538 19.6219 5.03538 19.6219C4.96038 19.6219 4.88538 19.6044 4.81038 19.5694C4.73538 19.5344 4.67288 19.4894 4.62288 19.4344C4.57288 19.3744 4.54788 19.3069 4.54788 19.2319C4.54788 19.1769 4.56538 19.1369 4.60038 19.1119C4.63538 19.0869 4.69788 19.0619 4.78788 19.0369C5.01788 18.9719 5.19788 18.8769 5.32788 18.7519C5.46288 18.6269 5.56038 18.4794 5.62038 18.3094C5.68038 18.1344 5.71038 17.9469 5.71038 17.7469C5.71038 17.5219 5.66538 17.3519 5.57538 17.2369C5.48538 17.1169 5.36038 17.0344 5.20038 16.9894C5.04038 16.9444 4.85788 16.9219 4.65288 16.9219L4.15788 21.4819H3.31038ZM7.71312 21.5419C7.61812 21.5419 7.53812 21.4744 7.47312 21.3394C7.41312 21.1994 7.38312 21.0444 7.38312 20.8744C7.38312 20.7594 7.38562 20.6519 7.39062 20.5519C7.40062 20.4519 7.41562 20.3169 7.43562 20.1469L7.70562 17.7394H8.47062C8.59562 17.7394 8.68312 17.7944 8.73312 17.9044C8.78312 18.0144 8.80812 18.1394 8.80812 18.2794C8.80812 18.3494 8.80312 18.4244 8.79312 18.5044C8.78312 18.5794 8.76812 18.6969 8.74812 18.8569L8.60562 20.0794C8.58062 20.3244 8.55562 20.5344 8.53062 20.7094C8.50562 20.8844 8.48312 21.0394 8.46312 21.1744C8.44812 21.3044 8.43312 21.4269 8.41812 21.5419H7.71312ZM8.37312 17.4919C8.19812 17.4919 8.04562 17.4319 7.91562 17.3119C7.79062 17.1919 7.72812 17.0369 7.72812 16.8469C7.72812 16.6169 7.80062 16.4394 7.94562 16.3144C8.09562 16.1844 8.26812 16.1194 8.46312 16.1194C8.64312 16.1194 8.79312 16.1719 8.91312 16.2769C9.03812 16.3819 9.10062 16.5419 9.10062 16.7569C9.10062 16.9669 9.02812 17.1419 8.88312 17.2819C8.73812 17.4219 8.56812 17.4919 8.37312 17.4919ZM10.6259 21.5419C10.2159 21.5419 9.89087 21.4194 9.65087 21.1744C9.41087 20.9294 9.29087 20.5769 9.29087 20.1169C9.29087 19.6669 9.38587 19.2619 9.57587 18.9019C9.76587 18.5419 10.0259 18.2594 10.3559 18.0544C10.6859 17.8444 11.0609 17.7394 11.4809 17.7394C11.7609 17.7394 11.9834 17.7794 12.1484 17.8594C12.3184 17.9394 12.4034 18.0669 12.4034 18.2419C12.4034 18.3219 12.3834 18.4144 12.3434 18.5194C12.3034 18.6194 12.2534 18.7069 12.1934 18.7819C12.1384 18.8519 12.0784 18.8869 12.0134 18.8869C11.9784 18.8869 11.9409 18.8744 11.9009 18.8494C11.8659 18.8194 11.8334 18.7894 11.8034 18.7594C11.7584 18.7144 11.6959 18.6594 11.6159 18.5944C11.5359 18.5244 11.4484 18.4644 11.3534 18.4144C11.2584 18.3644 11.1659 18.3394 11.0759 18.3394C10.9509 18.3394 10.8409 18.4094 10.7459 18.5494C10.6509 18.6894 10.5784 18.8769 10.5284 19.1119C10.4784 19.3419 10.4534 19.5969 10.4534 19.8769C10.4534 20.1519 10.4909 20.3669 10.5659 20.5219C10.6459 20.6719 10.7734 20.7469 10.9484 20.7469C11.1084 20.7469 11.2559 20.7219 11.3909 20.6719C11.5259 20.6219 11.6509 20.5619 11.7659 20.4919C11.8109 20.4619 11.8559 20.4344 11.9009 20.4094C11.9509 20.3794 11.9934 20.3644 12.0284 20.3644C12.0584 20.3644 12.0809 20.3769 12.0959 20.4019C12.1159 20.4219 12.1259 20.4519 12.1259 20.4919C12.1259 20.5819 12.0909 20.6869 12.0209 20.8069C11.9559 20.9269 11.8559 21.0444 11.7209 21.1594C11.5909 21.2694 11.4334 21.3594 11.2484 21.4294C11.0684 21.5044 10.8609 21.5419 10.6259 21.5419ZM13.6692 21.5419C13.2492 21.5419 12.9217 21.4819 12.6867 21.3619C12.4517 21.2369 12.3342 21.0544 12.3342 20.8144C12.3342 20.6494 12.3567 20.5219 12.4017 20.4319C12.4467 20.3369 12.4992 20.2894 12.5592 20.2894C12.6042 20.2894 12.6492 20.3019 12.6942 20.3269C12.7392 20.3519 12.8017 20.3944 12.8817 20.4544C12.9667 20.5144 13.0692 20.5794 13.1892 20.6494C13.3092 20.7194 13.4317 20.7794 13.5567 20.8294C13.6867 20.8794 13.8017 20.9044 13.9017 20.9044C14.0067 20.9044 14.0967 20.8794 14.1717 20.8294C14.2467 20.7794 14.2842 20.7044 14.2842 20.6044C14.2842 20.5344 14.2642 20.4719 14.2242 20.4169C14.1842 20.3619 14.1042 20.2994 13.9842 20.2294L13.4142 19.8919C13.1992 19.7619 13.0317 19.6169 12.9117 19.4569C12.7917 19.2919 12.7317 19.0994 12.7317 18.8794C12.7317 18.5394 12.8567 18.2669 13.1067 18.0619C13.3567 17.8519 13.7417 17.7469 14.2617 17.7469C14.5817 17.7469 14.8292 17.7769 15.0042 17.8369C15.1792 17.8969 15.2667 18.0069 15.2667 18.1669C15.2667 18.3269 15.2392 18.4669 15.1842 18.5869C15.1342 18.7069 15.0667 18.7669 14.9817 18.7669C14.9517 18.7669 14.9192 18.7594 14.8842 18.7444C14.8492 18.7294 14.8142 18.7144 14.7792 18.6994C14.7242 18.6744 14.6517 18.6344 14.5617 18.5794C14.4717 18.5244 14.3767 18.4744 14.2767 18.4294C14.1817 18.3844 14.0892 18.3619 13.9992 18.3619C13.9042 18.3619 13.8317 18.3894 13.7817 18.4444C13.7367 18.4944 13.7142 18.5519 13.7142 18.6169C13.7142 18.6919 13.7342 18.7569 13.7742 18.8119C13.8192 18.8669 13.9117 18.9219 14.0517 18.9769L14.5542 19.1794C14.8292 19.2894 15.0292 19.4294 15.1542 19.5994C15.2842 19.7694 15.3492 19.9719 15.3492 20.2069C15.3492 20.4919 15.2717 20.7344 15.1167 20.9344C14.9617 21.1344 14.7567 21.2869 14.5017 21.3919C14.2467 21.4919 13.9692 21.5419 13.6692 21.5419ZM16.6076 21.5419C16.3676 21.5419 16.1776 21.4719 16.0376 21.3319C15.8976 21.1919 15.8476 20.9719 15.8876 20.6719L16.1726 18.5344H15.9776C15.8676 18.5344 15.8126 18.4844 15.8126 18.3844C15.8126 18.3244 15.8476 18.2394 15.9176 18.1294C15.9926 18.0144 16.0876 17.8944 16.2026 17.7694C16.3226 17.6394 16.4451 17.5169 16.5701 17.4019C16.7001 17.2869 16.8226 17.1919 16.9376 17.1169C17.0526 17.0419 17.1451 17.0044 17.2151 17.0044C17.2951 17.0044 17.3526 17.0319 17.3876 17.0869C17.4276 17.1369 17.4426 17.2144 17.4326 17.3194L17.3726 17.8594H18.1001C18.1751 17.8594 18.2176 17.8719 18.2276 17.8969C18.2376 17.9219 18.2351 17.9619 18.2201 18.0169C18.1551 18.2219 18.0951 18.3594 18.0401 18.4294C17.9901 18.4994 17.8951 18.5344 17.7551 18.5344H17.2676L17.0876 19.9894C17.0776 20.0844 17.0676 20.1744 17.0576 20.2594C17.0526 20.3444 17.0501 20.4219 17.0501 20.4919C17.0501 20.5569 17.0651 20.6144 17.0951 20.6644C17.1301 20.7094 17.1926 20.7319 17.2826 20.7319C17.3976 20.7319 17.4976 20.7069 17.5826 20.6569C17.6726 20.6069 17.7401 20.5819 17.7851 20.5819C17.8551 20.5819 17.8901 20.6194 17.8901 20.6944C17.8901 20.7594 17.8626 20.8394 17.8076 20.9344C17.7526 21.0294 17.6701 21.1244 17.5601 21.2194C17.4551 21.3094 17.3226 21.3844 17.1626 21.4444C17.0026 21.5094 16.8176 21.5419 16.6076 21.5419ZM19.7194 21.5344C19.2344 21.5344 18.8619 21.4144 18.6019 21.1744C18.3419 20.9294 18.2119 20.5744 18.2119 20.1094C18.2119 19.7694 18.2644 19.4569 18.3694 19.1719C18.4744 18.8819 18.6219 18.6294 18.8119 18.4144C19.0019 18.1994 19.2219 18.0344 19.4719 17.9194C19.7219 17.7994 19.9894 17.7394 20.2744 17.7394C20.7494 17.7394 21.1169 17.8619 21.3769 18.1069C21.6419 18.3519 21.7744 18.7044 21.7744 19.1644C21.7744 19.5044 21.7219 19.8194 21.6169 20.1094C21.5119 20.3944 21.3644 20.6444 21.1744 20.8594C20.9894 21.0744 20.7719 21.2419 20.5219 21.3619C20.2769 21.4769 20.0094 21.5344 19.7194 21.5344ZM19.8394 20.9719C19.9794 20.9719 20.1069 20.8994 20.2219 20.7544C20.3369 20.6094 20.4294 20.4094 20.4994 20.1544C20.5744 19.8944 20.6119 19.5919 20.6119 19.2469C20.6119 18.9369 20.5644 18.7019 20.4694 18.5419C20.3744 18.3819 20.2594 18.3019 20.1244 18.3019C19.9894 18.3019 19.8644 18.3744 19.7494 18.5194C19.6344 18.6644 19.5419 18.8669 19.4719 19.1269C19.4069 19.3819 19.3744 19.6819 19.3744 20.0269C19.3744 20.3319 19.4169 20.5669 19.5019 20.7319C19.5919 20.8919 19.7044 20.9719 19.8394 20.9719ZM23.3465 21.1819L23.0615 20.1094C23.2465 19.6294 23.434 19.2144 23.624 18.8644C23.814 18.5094 24.009 18.2344 24.209 18.0394C24.409 17.8444 24.6115 17.7469 24.8165 17.7469C24.9465 17.7469 25.054 17.7819 25.139 17.8519C25.229 17.9219 25.274 18.0444 25.274 18.2194C25.274 18.3344 25.259 18.4494 25.229 18.5644C25.199 18.6794 25.1565 18.7744 25.1015 18.8494C25.0465 18.9244 24.9815 18.9619 24.9065 18.9619C24.8415 18.9619 24.7615 18.9394 24.6665 18.8944C24.5765 18.8444 24.474 18.8194 24.359 18.8194C24.284 18.8194 24.1965 18.8794 24.0965 18.9994C24.0015 19.1144 23.9015 19.2769 23.7965 19.4869C23.6965 19.6969 23.6065 19.9469 23.5265 20.2369C23.4465 20.5219 23.3865 20.8369 23.3465 21.1819ZM22.409 21.5269C22.344 21.5269 22.2915 21.5144 22.2515 21.4894C22.2165 21.4694 22.194 21.4119 22.184 21.3169C22.179 21.2219 22.189 21.0694 22.214 20.8594L22.5665 17.7394H23.3015C23.4365 17.7394 23.5315 17.7944 23.5865 17.9044C23.6465 18.0144 23.6765 18.1394 23.6765 18.2794C23.6765 18.3444 23.649 18.4469 23.594 18.5869C23.544 18.7219 23.4865 18.8669 23.4215 19.0219C23.3615 19.1719 23.314 19.3044 23.279 19.4194L23.099 20.0344L23.474 19.9894L23.3465 21.1819C23.3415 21.2519 23.2965 21.3094 23.2115 21.3544C23.1265 21.3994 23.0265 21.4344 22.9115 21.4594C22.7965 21.4844 22.6915 21.5019 22.5965 21.5119C22.5015 21.5219 22.439 21.5269 22.409 21.5269ZM26.4214 23.0794C26.1114 23.0794 25.8664 23.0344 25.6864 22.9444C25.5064 22.8544 25.3789 22.7319 25.3039 22.5769C25.2289 22.4219 25.1914 22.2444 25.1914 22.0444C25.1914 21.9444 25.2114 21.8669 25.2514 21.8119C25.2914 21.7619 25.3289 21.7369 25.3639 21.7369C25.4039 21.7369 25.4389 21.7519 25.4689 21.7819C25.4989 21.8169 25.5439 21.8544 25.6039 21.8944C25.6989 21.9544 25.8114 22.0194 25.9414 22.0894C26.0714 22.1594 26.2089 22.2194 26.3539 22.2694C26.4989 22.3194 26.6364 22.3444 26.7664 22.3444C26.8414 22.3444 26.9239 22.3144 27.0139 22.2544C27.1039 22.1944 27.1964 22.0744 27.2914 21.8944C27.3914 21.7144 27.4889 21.4444 27.5839 21.0844L28.0264 19.3744H28.0639C27.8889 19.8644 27.6889 20.2694 27.4639 20.5894C27.2389 20.9044 26.9964 21.1369 26.7364 21.2869C26.4814 21.4369 26.2214 21.5119 25.9564 21.5119C25.7464 21.5119 25.5914 21.4544 25.4914 21.3394C25.3914 21.2244 25.3414 21.0644 25.3414 20.8594C25.3414 20.7594 25.3464 20.6494 25.3564 20.5294C25.3714 20.4094 25.3939 20.2219 25.4239 19.9669L25.7014 17.7394H26.3764C26.4614 17.7394 26.5414 17.7894 26.6164 17.8894C26.6964 17.9844 26.7364 18.1019 26.7364 18.2419C26.7364 18.3119 26.7314 18.3969 26.7214 18.4969C26.7164 18.5969 26.7064 18.7094 26.6914 18.8344C26.6814 18.9544 26.6664 19.0819 26.6464 19.2169L26.5489 19.8694C26.5289 20.0094 26.5139 20.1219 26.5039 20.2069C26.4939 20.2869 26.4889 20.3619 26.4889 20.4319C26.4889 20.4819 26.4939 20.5294 26.5039 20.5744C26.5189 20.6144 26.5489 20.6344 26.5939 20.6344C26.6539 20.6344 26.7314 20.5844 26.8264 20.4844C26.9214 20.3844 27.0214 20.2544 27.1264 20.0944C27.2314 19.9344 27.3289 19.7619 27.4189 19.5769C27.5139 19.3919 27.5914 19.2119 27.6514 19.0369C27.7114 18.8569 27.7414 18.7044 27.7414 18.5794C27.7414 18.4944 27.7389 18.4044 27.7339 18.3094C27.7289 18.2094 27.7264 18.1344 27.7264 18.0844C27.7264 18.0194 27.7764 17.9619 27.8764 17.9119C27.9764 17.8619 28.0989 17.8219 28.2439 17.7919C28.3889 17.7569 28.5264 17.7394 28.6564 17.7394C28.7614 17.7394 28.8389 17.7894 28.8889 17.8894C28.9439 17.9894 28.9614 18.1319 28.9414 18.3169C28.9364 18.4019 28.9264 18.5094 28.9114 18.6394C28.8964 18.7694 28.8789 18.9069 28.8589 19.0519L28.6039 21.1969C28.5639 21.5419 28.4714 21.8344 28.3264 22.0744C28.1814 22.3144 28.0039 22.5069 27.7939 22.6519C27.5889 22.8019 27.3664 22.9094 27.1264 22.9744C26.8864 23.0444 26.6514 23.0794 26.4214 23.0794Z" fill="black"/>
</mask>
<g mask="url(#mask0_13_39)">
<rect y="8.10938" width="32" height="17.9375" fill="url(#paint0_linear_13_39)"/>
</g>
<mask id="mask1_13_39" style="mask-type:alpha" maskUnits="userSpaceOnUse" x="13" y="8" width="10" height="10">
<path d="M19.7002 8.45312C20.208 8.4532 20.6375 8.78434 20.7871 9.24219H21.1465C21.2356 9.24219 21.334 9.24134 21.4239 9.25C22.2276 9.32763 22.8638 9.96385 22.9414 10.7676C22.9501 10.8574 22.9492 10.9559 22.9492 11.0449V13.7539C22.9492 14.0039 22.9495 14.2368 22.9336 14.4307C22.917 14.6332 22.8794 14.8586 22.7656 15.082C22.6039 15.3995 22.3449 15.6575 22.0274 15.8193C21.8038 15.9332 21.5786 15.9717 21.376 15.9883C21.1821 16.0041 20.9493 16.0039 20.6992 16.0039H17.4004C17.3096 16.0039 17.2598 16.0036 17.2227 16.0049C17.206 16.0055 17.1972 16.0065 17.1934 16.0068C17.1787 16.0095 17.1641 16.0135 17.1504 16.0195C17.1558 16.0171 17.1518 16.0183 17.125 16.0352C17.0937 16.0549 17.0525 16.0828 16.9776 16.1338L15.8223 16.9209C15.8218 16.9212 15.8199 16.9219 15.8184 16.9229C15.8168 16.9239 15.8136 16.927 15.8096 16.9297C15.8046 16.933 15.7813 16.9475 15.751 16.9639C15.2661 17.2258 14.6699 16.9114 14.6133 16.3633C14.6098 16.3289 14.6095 16.3011 14.6094 16.2949V16.043C14.6094 16.0213 14.592 16.0039 14.5703 16.0039C13.7203 16.0038 13.0313 15.3139 13.0313 14.4639V11.0449C13.0313 10.9558 13.0304 10.8574 13.0391 10.7676C13.1167 9.96382 13.7529 9.32757 14.5567 9.25C14.6463 9.24136 14.7441 9.24218 14.833 9.24219H15.1934C15.3431 8.78432 15.7724 8.45314 16.2803 8.45312H19.7002ZM16.2803 9.20312C16.0895 9.20314 15.9302 9.33857 15.8936 9.51855L15.878 9.67676C15.8466 9.83122 15.7248 9.95291 15.5703 9.98438L15.4912 9.99219H14.833C14.7269 9.99219 14.6737 9.99276 14.6289 9.99707L14.4658 10.0273C14.0986 10.1301 13.8229 10.4492 13.7852 10.8398L13.7813 11.0449V14.4639C13.7813 14.8723 14.0915 15.2093 14.4893 15.25L14.6514 15.2578C15.0491 15.2984 15.3594 15.6345 15.3594 16.043V16.2861C15.3611 16.3027 15.3799 16.3126 15.3946 16.3047L15.3994 16.3008L15.7783 16.043L16.5557 15.5137C16.6976 15.417 16.7687 15.3682 16.8457 15.334C16.88 15.3187 16.9154 15.3059 16.9512 15.2949L17.0596 15.2686C17.101 15.2611 17.1431 15.2568 17.1963 15.2549L17.4004 15.2539H20.6992L21.0469 15.252C21.3007 15.248 21.4715 15.2334 21.6084 15.1846L21.6875 15.1514C21.8638 15.0615 22.0069 14.9175 22.0967 14.7412C22.1732 14.5909 22.1925 14.4059 22.1973 14.1016L22.1992 13.7539V11.0449L22.1944 10.8398C22.1567 10.4492 21.8819 10.1301 21.5147 10.0273L21.3516 9.99707C21.3067 9.99274 21.253 9.99219 21.1465 9.99219H20.4893L20.4102 9.98438C20.2557 9.95295 20.134 9.83126 20.1026 9.67676L20.0869 9.51855C20.0555 9.36415 19.9337 9.24241 19.7793 9.21094L19.7002 9.20312H16.2803ZM18.0039 10.1436C19.3006 10.1436 20.3524 11.1946 20.3526 12.4912C20.3525 13.7879 19.3006 14.8398 18.0039 14.8398C16.7074 14.8397 15.6563 13.7878 15.6563 12.4912C15.6564 11.1947 16.7074 10.1437 18.0039 10.1436ZM18.0039 10.8936C17.1216 10.8937 16.4064 11.6089 16.4063 12.4912C16.4063 13.3736 17.1216 14.0897 18.0039 14.0898C18.8864 14.0898 19.6025 13.3737 19.6026 12.4912C19.6024 11.6088 18.8863 10.8936 18.0039 10.8936ZM20.8838 10.874C21.0041 10.7508 21.199 10.7509 21.3194 10.874C21.4395 10.9974 21.4395 11.197 21.3194 11.3203L20.9922 11.6553C20.9772 11.6707 20.96 11.6827 20.9414 11.6904C20.9043 11.7058 20.8623 11.7059 20.8252 11.6904C20.8068 11.6827 20.7894 11.6706 20.7744 11.6553L20.4473 11.3203C20.3275 11.197 20.3273 10.9972 20.4473 10.874C20.5676 10.7507 20.7634 10.7509 20.8838 10.874Z" fill="#040404"/>
</mask>
<g mask="url(#mask1_13_39)">
<rect y="8.10938" width="32" height="17.9375" fill="url(#paint1_linear_13_39)"/>
</g>
<defs>
<linearGradient id="paint0_linear_13_39" x1="29.0156" y1="17.3146" x2="4.14113" y2="23.2975" gradientUnits="userSpaceOnUse">
<stop stop-color="#CDC1E7"/>
<stop offset="0.961538" stop-color="#FECFCD"/>
<stop offset="1" stop-color="#FBDEB4"/>
</linearGradient>
<linearGradient id="paint1_linear_13_39" x1="23.125" y1="12.7689" x2="18.3953" y2="19.659" gradientUnits="userSpaceOnUse">
<stop offset="0.0961538" stop-color="#CDC1E7"/>
<stop offset="0.865385" stop-color="#FECFCD"/>
<stop offset="1" stop-color="#FBDEB4"/>
</linearGradient>
</defs>
</svg>
